<svg width="1042" height="790" viewBox="0 0 1042 790" fill="none" xmlns="http://www.w3.org/2000/svg">
<rect width="172" height="228"/>
<path d="M98.6874 50.0168C97.1277 51.9144 96.3473 53.7515 95.4965 56.0382C97.5141 56.0456 99.5904 55.2124 101.801 54.0543C100.609 56.3768 99.7012 59.4637 99.9448 61.3274C98.2853 60.4814 97.0791 59.7684 95.1183 59.5619C95.1888 61.6605 95.5909 63.3902 96.1761 65.4026C93.1364 64.6676 90.2422 64.6896 87.2355 65.1769C88.9582 63.3324 90.3961 61.6027 91.5089 59.5133C89.4335 59.2013 87.4855 59.4077 85.1977 60.5364C86.2088 58.4039 86.9278 55.9391 87.3253 53.445C88.6652 54.8233 90.3338 55.7409 92.1747 56.2428C92.2672 54.5618 91.9686 52.4145 91.257 50.226C93.6923 50.4334 96.2475 50.3416 98.6874 50.0168V50.0168Z" fill="#E31937"/>
<path d="M69.6959 58.6947C69.0127 63.4957 71.1128 64.7381 71.284 69.3428C73.9372 68.4325 80.8346 67.9379 82.9804 67.7406C80.2237 68.9271 76.5209 72.994 73.7651 74.4916C78.2583 77.1876 78.7382 80.8884 81.0333 82.8457C78.4625 81.8133 74.0636 83.3614 70.5797 80.5287C70.2427 83.1063 67.05 89.1507 66.3274 93.6709C64.59 85.0773 63.3527 82.9851 63.1347 79.4624C58.4336 81.2563 54.2546 79.9019 51.0528 79.7744C54.9845 77.8033 57.9409 76.815 60.8414 73.9621C58.1955 70.1558 57.4601 67.4433 55.6971 65.9687C58.3118 66.8239 63.7694 68.7574 65.4308 68.9831C65.6607 64.16 68.2864 60.4106 69.6959 58.6947V58.6947ZM122.849 64.9088C121.333 66.957 119.358 69.6621 118.606 73.9612C122.184 73.6153 126.821 74.4053 127.815 75.2037C124.645 75.9525 120.703 79.2862 118.961 81.0664C120.224 84.335 121.082 87.5476 122.506 92.7863C119.98 89.6315 117.383 87.2934 114.358 84.257C112.092 87.5476 109.877 91.2465 107.804 94.5518C108.282 90.0123 106.316 86.1913 108.862 82.485C105.088 81.1279 101.023 81.1279 99.1105 79.6386C103.607 78.7907 106.019 75.9158 109.385 75.7331C109.385 75.7331 106.315 68.1838 103.429 65.9045C107.421 66.7019 111.367 68.5518 113.471 70.9459C115.301 69.4144 118.106 65.5163 122.849 64.9088V64.9088Z" fill="#E31937"/>
<path d="M51.2954 57.2036C51.2954 57.2036 53.5118 50.5526 59.6563 44.3798C65.82 38.2243 72.4654 36 80.3519 36C88.2099 36 108.905 38.7189 118.743 38.7189C128.592 38.7189 131.055 37.7297 134 36C133.263 37.9766 133.263 38.7189 130.806 41.1763C126.859 45.1304 122.185 46.3526 112.091 46.3526C96.5891 46.3526 88.7146 45.6176 79.1146 45.6176C69.5054 45.6176 64.3317 46.2811 59.9118 49.0716C55.2336 52.0282 51.2954 57.2036 51.2954 57.2036V57.2036Z" fill="#E31937"/>
<path d="M59.2268 96.1613C59.1709 98.6398 59.4594 103.083 63.3536 108.139C63.8473 105.92 67.6664 106.782 74.4712 102.193C72.6715 104.29 69.9918 109.226 68.0904 111.606C72.1065 112.835 72.5928 117.884 76.0685 120.658C72.7091 118.746 67.7131 118.47 65.6936 117.142C66.8385 121.676 64.2228 126.634 65.0764 130.962C63.7539 129.099 60.6363 120.432 60.1197 120.137C56.2219 121.463 51.5473 126.139 50.3723 125.637C54.37 121.331 54.0055 116.767 56.2219 114.798C53.0502 114.657 47.6751 110.54 46.1117 108.239C50.8018 109.616 53.8782 109.99 57.2861 108.946C57.2861 106.734 57.5737 97.78 59.2268 96.1613ZM116.299 96.1613C115.3 101.351 116.654 104.311 116.299 109.119C118.005 108.258 121.569 109.247 126.756 108.06C123.049 110.484 120.223 112.701 118.076 115.335C120.452 118.618 120.587 122.07 123.564 125.99C120.587 124.421 116.28 121.823 114.004 120.835C112.596 122.692 110.985 126.138 110.455 132.028C109.508 127.373 107.913 122.812 108.147 117.996C103.478 119.231 101.389 117.883 96.7988 118.709C99.8737 116.881 102.946 115.048 106.014 113.209C105.445 112.579 103.235 111.216 99.8212 101.126C104.16 104.988 105.817 104.685 110.626 108.406C110.747 104.438 113.698 103.331 116.299 96.1613V96.1613Z" fill="#E31937"/>
<path d="M81.0855 102.836C84.7681 84.5819 91.4127 69.7889 91.4127 69.7889C92.6445 88.7691 88.47 104.07 91.8431 137.535H95.5661C97.1615 137.535 97.2201 135.756 98.5783 135.756C99.7799 135.756 101.263 138.475 104.599 138.411C101.504 140.805 100.159 142.501 98.9291 142.501C97.6909 142.501 97.1917 141.264 95.9168 141.264C93.1345 141.264 91.5409 141.681 89.0727 141.681C89.0727 144.139 88.9564 147.59 88.9564 150.556C88.9564 152.315 91.3101 151.673 91.3101 153.508C91.3101 154.836 88.2731 158.134 87.7648 161.855C85.978 158.396 82.9786 156.355 82.9786 154.229C82.9786 152.408 84.7489 152.777 84.7489 151.03C84.7489 147.478 84.0373 144.526 84.0373 141.978C84.0373 141.978 80.4682 142.055 77.6336 142.055C75.8495 142.055 76.5135 144.718 74.2972 145.17C72.7072 145.142 67.9146 143.037 67.9146 143.037C69.5036 142.056 71.4782 138.109 73.0736 138.109C74.4135 138.109 74.6351 139.464 75.66 139.464C75.66 139.464 81.134 138.83 82.3146 138.342C82.0581 137.565 80.8345 109.247 81.0855 102.836V102.836Z" fill="#E31937"/>
<path d="M42.6819 106.783C42.6819 106.783 38 115.667 38 124.564C38 136.893 43.6691 144.273 52.7682 153.395C58.8504 159.489 72.5131 168.005 80.5855 176.816C85.5979 182.301 89.4418 185.949 88.471 192C89.8191 189.655 90.4346 185.949 90.4346 182.258C90.4346 173.984 85.5659 169.122 78.9204 162.72C71.8793 155.91 62.8124 149.074 55.4855 141.809C47.5148 133.9 42.1882 124.825 42.1882 116.16C42.1882 112.213 42.6819 106.783 42.6819 106.783V106.783Z" fill="#E31937"/>
<rect width="870" height="790" transform="matrix(-1 0 0 1 1042 0)" fill="#FEDF47"/>
<path d="M273.648 54.7227L266.723 61.5781C262.34 56.9375 257.23 54.6172 251.395 54.6172C246.309 54.6172 242.043 56.3047 238.598 59.6797C235.176 63.0547 233.465 67.1562 233.465 71.9844C233.465 76.9766 235.246 81.207 238.809 84.6758C242.371 88.1445 246.766 89.8789 251.992 89.8789C255.391 89.8789 258.25 89.1641 260.57 87.7344C262.914 86.3047 264.801 84.0664 266.23 81.0195H251.254V71.7734H277.27L277.34 73.9531C277.34 78.4766 276.168 82.7656 273.824 86.8203C271.48 90.875 268.445 93.9688 264.719 96.1016C260.992 98.2344 256.621 99.3008 251.605 99.3008C246.238 99.3008 241.445 98.1406 237.227 95.8203C233.031 93.4766 229.703 90.1484 227.242 85.8359C224.805 81.5234 223.586 76.8711 223.586 71.8789C223.586 65.0352 225.848 59.082 230.371 54.0195C235.738 47.9961 242.723 44.9844 251.324 44.9844C255.824 44.9844 260.031 45.8164 263.945 47.4805C267.25 48.8867 270.484 51.3008 273.648 54.7227ZM323.641 81.6523H292.809C293.254 84.3711 294.438 86.5391 296.359 88.1562C298.305 89.75 300.777 90.5469 303.777 90.5469C307.363 90.5469 310.445 89.293 313.023 86.7852L321.109 90.582C319.094 93.4414 316.68 95.5625 313.867 96.9453C311.055 98.3047 307.715 98.9844 303.848 98.9844C297.848 98.9844 292.961 97.0977 289.188 93.3242C285.414 89.5273 283.527 84.7812 283.527 79.0859C283.527 73.25 285.402 68.4102 289.152 64.5664C292.926 60.6992 297.648 58.7656 303.32 58.7656C309.344 58.7656 314.242 60.6992 318.016 64.5664C321.789 68.4102 323.676 73.4961 323.676 79.8242L323.641 81.6523ZM314.008 74.0938C313.375 71.9609 312.121 70.2266 310.246 68.8906C308.395 67.5547 306.238 66.8867 303.777 66.8867C301.105 66.8867 298.762 67.6367 296.746 69.1367C295.48 70.0742 294.309 71.7266 293.23 74.0938H314.008ZM331.375 59.75H341.008V64.1445C342.648 62.3398 344.465 60.9922 346.457 60.1016C348.473 59.2109 350.664 58.7656 353.031 58.7656C355.422 58.7656 357.578 59.3516 359.5 60.5234C361.422 61.6953 362.969 63.4062 364.141 65.6562C365.664 63.4062 367.527 61.6953 369.73 60.5234C371.957 59.3516 374.383 58.7656 377.008 58.7656C379.727 58.7656 382.117 59.3984 384.18 60.6641C386.242 61.9297 387.719 63.582 388.609 65.6211C389.523 67.6602 389.98 70.9766 389.98 75.5703V98H380.312V78.5938C380.312 74.2578 379.773 71.3281 378.695 69.8047C377.617 68.2578 376 67.4844 373.844 67.4844C372.203 67.4844 370.727 67.9531 369.414 68.8906C368.125 69.8281 367.164 71.1289 366.531 72.793C365.898 74.4336 365.582 77.082 365.582 80.7383V98H355.914V79.4727C355.914 76.0508 355.656 73.5781 355.141 72.0547C354.648 70.5078 353.898 69.3594 352.891 68.6094C351.883 67.8594 350.664 67.4844 349.234 67.4844C347.641 67.4844 346.188 67.9648 344.875 68.9258C343.586 69.8633 342.613 71.1875 341.957 72.8984C341.324 74.6094 341.008 77.3047 341.008 80.9844V98H331.375V59.75ZM437.477 81.6523H406.645C407.09 84.3711 408.273 86.5391 410.195 88.1562C412.141 89.75 414.613 90.5469 417.613 90.5469C421.199 90.5469 424.281 89.293 426.859 86.7852L434.945 90.582C432.93 93.4414 430.516 95.5625 427.703 96.9453C424.891 98.3047 421.551 98.9844 417.684 98.9844C411.684 98.9844 406.797 97.0977 403.023 93.3242C399.25 89.5273 397.363 84.7812 397.363 79.0859C397.363 73.25 399.238 68.4102 402.988 64.5664C406.762 60.6992 411.484 58.7656 417.156 58.7656C423.18 58.7656 428.078 60.6992 431.852 64.5664C435.625 68.4102 437.512 73.4961 437.512 79.8242L437.477 81.6523ZM427.844 74.0938C427.211 71.9609 425.957 70.2266 424.082 68.8906C422.23 67.5547 420.074 66.8867 417.613 66.8867C414.941 66.8867 412.598 67.6367 410.582 69.1367C409.316 70.0742 408.145 71.7266 407.066 74.0938H427.844ZM483.602 81.6523H452.77C453.215 84.3711 454.398 86.5391 456.32 88.1562C458.266 89.75 460.738 90.5469 463.738 90.5469C467.324 90.5469 470.406 89.293 472.984 86.7852L481.07 90.582C479.055 93.4414 476.641 95.5625 473.828 96.9453C471.016 98.3047 467.676 98.9844 463.809 98.9844C457.809 98.9844 452.922 97.0977 449.148 93.3242C445.375 89.5273 443.488 84.7812 443.488 79.0859C443.488 73.25 445.363 68.4102 449.113 64.5664C452.887 60.6992 457.609 58.7656 463.281 58.7656C469.305 58.7656 474.203 60.6992 477.977 64.5664C481.75 68.4102 483.637 73.4961 483.637 79.8242L483.602 81.6523ZM473.969 74.0938C473.336 71.9609 472.082 70.2266 470.207 68.8906C468.355 67.5547 466.199 66.8867 463.738 66.8867C461.066 66.8867 458.723 67.6367 456.707 69.1367C455.441 70.0742 454.27 71.7266 453.191 74.0938H473.969ZM491.406 59.75H500.969V63.6523C503.148 61.8242 505.117 60.5586 506.875 59.8555C508.656 59.1289 510.473 58.7656 512.324 58.7656C516.121 58.7656 519.344 60.0898 521.992 62.7383C524.219 64.9883 525.332 68.3164 525.332 72.7227V98H515.84V81.2305C515.84 76.6602 515.629 73.625 515.207 72.125C514.809 70.625 514.094 69.4883 513.062 68.7148C512.055 67.918 510.801 67.5195 509.301 67.5195C507.355 67.5195 505.68 68.1758 504.273 69.4883C502.891 70.7773 501.93 72.5703 501.391 74.8672C501.109 76.0625 500.969 78.6523 500.969 82.6367V98H491.406V59.75ZM535.809 45.6523H545.371V59.75H551.066V68.0117H545.371V98H535.809V68.0117H530.887V59.75H535.809V45.6523ZM594.555 81.6523H563.723C564.168 84.3711 565.352 86.5391 567.273 88.1562C569.219 89.75 571.691 90.5469 574.691 90.5469C578.277 90.5469 581.359 89.293 583.938 86.7852L592.023 90.582C590.008 93.4414 587.594 95.5625 584.781 96.9453C581.969 98.3047 578.629 98.9844 574.762 98.9844C568.762 98.9844 563.875 97.0977 560.102 93.3242C556.328 89.5273 554.441 84.7812 554.441 79.0859C554.441 73.25 556.316 68.4102 560.066 64.5664C563.84 60.6992 568.562 58.7656 574.234 58.7656C580.258 58.7656 585.156 60.6992 588.93 64.5664C592.703 68.4102 594.59 73.4961 594.59 79.8242L594.555 81.6523ZM584.922 74.0938C584.289 71.9609 583.035 70.2266 581.16 68.8906C579.309 67.5547 577.152 66.8867 574.691 66.8867C572.02 66.8867 569.676 67.6367 567.66 69.1367C566.395 70.0742 565.223 71.7266 564.145 74.0938H584.922ZM225.871 121.285H235.855V140.797H253.152V121.285H263.102V173H253.152V150.324H235.855V173H225.871V121.285ZM302.125 134.75H311.688V173H302.125V168.957C300.25 170.738 298.363 172.027 296.465 172.824C294.59 173.598 292.551 173.984 290.348 173.984C285.402 173.984 281.125 172.074 277.516 168.254C273.906 164.41 272.102 159.641 272.102 153.945C272.102 148.039 273.848 143.199 277.34 139.426C280.832 135.652 285.074 133.766 290.066 133.766C292.363 133.766 294.52 134.199 296.535 135.066C298.551 135.934 300.414 137.234 302.125 138.969V134.75ZM292.035 142.625C289.059 142.625 286.586 143.68 284.617 145.789C282.648 147.875 281.664 150.559 281.664 153.84C281.664 157.145 282.66 159.863 284.652 161.996C286.668 164.129 289.141 165.195 292.07 165.195C295.094 165.195 297.602 164.152 299.594 162.066C301.586 159.957 302.582 157.203 302.582 153.805C302.582 150.477 301.586 147.781 299.594 145.719C297.602 143.656 295.082 142.625 292.035 142.625ZM349.656 134.75H359.219V173H349.656V168.957C347.781 170.738 345.895 172.027 343.996 172.824C342.121 173.598 340.082 173.984 337.879 173.984C332.934 173.984 328.656 172.074 325.047 168.254C321.438 164.41 319.633 159.641 319.633 153.945C319.633 148.039 321.379 143.199 324.871 139.426C328.363 135.652 332.605 133.766 337.598 133.766C339.895 133.766 342.051 134.199 344.066 135.066C346.082 135.934 347.945 137.234 349.656 138.969V134.75ZM339.566 142.625C336.59 142.625 334.117 143.68 332.148 145.789C330.18 147.875 329.195 150.559 329.195 153.84C329.195 157.145 330.191 159.863 332.184 161.996C334.199 164.129 336.672 165.195 339.602 165.195C342.625 165.195 345.133 164.152 347.125 162.066C349.117 159.957 350.113 157.203 350.113 153.805C350.113 150.477 349.117 147.781 347.125 145.719C345.133 143.656 342.613 142.625 339.566 142.625ZM366.672 134.75H374.898V139.566C375.789 137.668 376.973 136.227 378.449 135.242C379.926 134.258 381.543 133.766 383.301 133.766C384.543 133.766 385.844 134.094 387.203 134.75L384.215 143.012C383.09 142.449 382.164 142.168 381.438 142.168C379.961 142.168 378.707 143.082 377.676 144.91C376.668 146.738 376.164 150.324 376.164 155.668L376.199 157.531V173H366.672V134.75ZM390.965 119.984H400.562V173H390.965V119.984ZM447.602 156.652H416.77C417.215 159.371 418.398 161.539 420.32 163.156C422.266 164.75 424.738 165.547 427.738 165.547C431.324 165.547 434.406 164.293 436.984 161.785L445.07 165.582C443.055 168.441 440.641 170.562 437.828 171.945C435.016 173.305 431.676 173.984 427.809 173.984C421.809 173.984 416.922 172.098 413.148 168.324C409.375 164.527 407.488 159.781 407.488 154.086C407.488 148.25 409.363 143.41 413.113 139.566C416.887 135.699 421.609 133.766 427.281 133.766C433.305 133.766 438.203 135.699 441.977 139.566C445.75 143.41 447.637 148.496 447.637 154.824L447.602 156.652ZM437.969 149.094C437.336 146.961 436.082 145.227 434.207 143.891C432.355 142.555 430.199 141.887 427.738 141.887C425.066 141.887 422.723 142.637 420.707 144.137C419.441 145.074 418.27 146.727 417.191 149.094H437.969ZM455.336 134.75H464.969V139.145C466.609 137.34 468.426 135.992 470.418 135.102C472.434 134.211 474.625 133.766 476.992 133.766C479.383 133.766 481.539 134.352 483.461 135.523C485.383 136.695 486.93 138.406 488.102 140.656C489.625 138.406 491.488 136.695 493.691 135.523C495.918 134.352 498.344 133.766 500.969 133.766C503.688 133.766 506.078 134.398 508.141 135.664C510.203 136.93 511.68 138.582 512.57 140.621C513.484 142.66 513.941 145.977 513.941 150.57V173H504.273V153.594C504.273 149.258 503.734 146.328 502.656 144.805C501.578 143.258 499.961 142.484 497.805 142.484C496.164 142.484 494.688 142.953 493.375 143.891C492.086 144.828 491.125 146.129 490.492 147.793C489.859 149.434 489.543 152.082 489.543 155.738V173H479.875V154.473C479.875 151.051 479.617 148.578 479.102 147.055C478.609 145.508 477.859 144.359 476.852 143.609C475.844 142.859 474.625 142.484 473.195 142.484C471.602 142.484 470.148 142.965 468.836 143.926C467.547 144.863 466.574 146.188 465.918 147.898C465.285 149.609 464.969 152.305 464.969 155.984V173H455.336V134.75Z" fill="black"/>
<path d="M280.68 285.969C295.305 285.969 307.867 291.266 318.367 301.859C328.914 312.453 334.188 325.367 334.188 340.602C334.188 355.695 328.984 368.469 318.578 378.922C308.219 389.375 295.633 394.602 280.82 394.602C265.305 394.602 252.414 389.234 242.148 378.5C231.883 367.766 226.75 355.016 226.75 340.25C226.75 330.359 229.141 321.266 233.922 312.969C238.703 304.672 245.266 298.109 253.609 293.281C262 288.406 271.023 285.969 280.68 285.969ZM280.469 305.234C270.906 305.234 262.867 308.562 256.352 315.219C249.836 321.875 246.578 330.336 246.578 340.602C246.578 352.039 250.68 361.086 258.883 367.742C265.258 372.945 272.57 375.547 280.82 375.547C290.148 375.547 298.094 372.172 304.656 365.422C311.219 358.672 314.5 350.352 314.5 340.461C314.5 330.617 311.195 322.297 304.586 315.5C297.977 308.656 289.938 305.234 280.469 305.234ZM369.695 315.5V323.938C373.164 320.469 376.914 317.867 380.945 316.133C384.977 314.398 389.289 313.531 393.883 313.531C403.867 313.531 412.352 317.305 419.336 324.852C426.32 332.398 429.812 342.078 429.812 353.891C429.812 365.281 426.203 374.82 418.984 382.508C411.766 390.148 403.211 393.969 393.32 393.969C388.914 393.969 384.812 393.195 381.016 391.648C377.219 390.055 373.445 387.477 369.695 383.914V419.984H350.641V315.5H369.695ZM389.875 331.25C383.828 331.25 378.812 333.312 374.828 337.438C370.844 341.562 368.852 346.953 368.852 353.609C368.852 360.406 370.844 365.914 374.828 370.133C378.812 374.305 383.828 376.391 389.875 376.391C395.734 376.391 400.656 374.258 404.641 369.992C408.672 365.727 410.688 360.289 410.688 353.68C410.688 347.117 408.719 341.75 404.781 337.578C400.844 333.359 395.875 331.25 389.875 331.25ZM522.344 359.305H460.68C461.57 364.742 463.938 369.078 467.781 372.312C471.672 375.5 476.617 377.094 482.617 377.094C489.789 377.094 495.953 374.586 501.109 369.57L517.281 377.164C513.25 382.883 508.422 387.125 502.797 389.891C497.172 392.609 490.492 393.969 482.758 393.969C470.758 393.969 460.984 390.195 453.438 382.648C445.891 375.055 442.117 365.562 442.117 354.172C442.117 342.5 445.867 332.82 453.367 325.133C460.914 317.398 470.359 313.531 481.703 313.531C493.75 313.531 503.547 317.398 511.094 325.133C518.641 332.82 522.414 342.992 522.414 355.648L522.344 359.305ZM503.078 344.188C501.812 339.922 499.305 336.453 495.555 333.781C491.852 331.109 487.539 329.773 482.617 329.773C477.273 329.773 472.586 331.273 468.555 334.273C466.023 336.148 463.68 339.453 461.523 344.188H503.078ZM537.953 315.5H557.078V323.305C561.438 319.648 565.375 317.117 568.891 315.711C572.453 314.258 576.086 313.531 579.789 313.531C587.383 313.531 593.828 316.18 599.125 321.477C603.578 325.977 605.805 332.633 605.805 341.445V392H586.82V358.461C586.82 349.32 586.398 343.25 585.555 340.25C584.758 337.25 583.328 334.977 581.266 333.43C579.25 331.836 576.742 331.039 573.742 331.039C569.852 331.039 566.5 332.352 563.688 334.977C560.922 337.555 559 341.141 557.922 345.734C557.359 348.125 557.078 353.305 557.078 361.273V392H537.953V315.5ZM286.023 478.633L271.469 491.5C266.359 484.375 261.156 480.812 255.859 480.812C253.281 480.812 251.172 481.516 249.531 482.922C247.891 484.281 247.07 485.828 247.07 487.562C247.07 489.297 247.656 490.938 248.828 492.484C250.422 494.547 255.227 498.977 263.242 505.773C270.742 512.055 275.289 516.016 276.883 517.656C280.867 521.688 283.68 525.555 285.32 529.258C287.008 532.914 287.852 536.922 287.852 541.281C287.852 549.766 284.922 556.773 279.062 562.305C273.203 567.836 265.562 570.602 256.141 570.602C248.781 570.602 242.359 568.797 236.875 565.188C231.438 561.578 226.773 555.906 222.883 548.172L239.406 538.188C244.375 547.328 250.094 551.898 256.562 551.898C259.938 551.898 262.773 550.914 265.07 548.945C267.367 546.977 268.516 544.703 268.516 542.125C268.516 539.781 267.648 537.438 265.914 535.094C264.18 532.75 260.359 529.164 254.453 524.336C243.203 515.148 235.938 508.07 232.656 503.102C229.375 498.086 227.734 493.094 227.734 488.125C227.734 480.953 230.453 474.812 235.891 469.703C241.375 464.547 248.125 461.969 256.141 461.969C261.297 461.969 266.195 463.164 270.836 465.555C275.523 467.945 280.586 472.305 286.023 478.633ZM340.586 489.531C347.805 489.531 354.578 491.336 360.906 494.945C367.281 498.555 372.25 503.453 375.812 509.641C379.375 515.828 381.156 522.508 381.156 529.68C381.156 536.898 379.352 543.648 375.742 549.93C372.18 556.211 367.305 561.133 361.117 564.695C354.93 568.211 348.109 569.969 340.656 569.969C329.688 569.969 320.312 566.078 312.531 558.297C304.797 550.469 300.93 540.977 300.93 529.82C300.93 517.867 305.312 507.906 314.078 499.938C321.766 493 330.602 489.531 340.586 489.531ZM340.867 507.602C334.914 507.602 329.945 509.688 325.961 513.859C322.023 517.984 320.055 523.281 320.055 529.75C320.055 536.406 322 541.797 325.891 545.922C329.828 550.047 334.797 552.109 340.797 552.109C346.797 552.109 351.789 550.023 355.773 545.852C359.758 541.68 361.75 536.312 361.75 529.75C361.75 523.188 359.781 517.867 355.844 513.789C351.953 509.664 346.961 507.602 340.867 507.602ZM396.836 491.5H416.242V528.344C416.242 535.516 416.734 540.508 417.719 543.32C418.703 546.086 420.273 548.242 422.43 549.789C424.633 551.336 427.328 552.109 430.516 552.109C433.703 552.109 436.398 551.359 438.602 549.859C440.852 548.312 442.516 546.062 443.594 543.109C444.391 540.906 444.789 536.195 444.789 528.977V491.5H464.055V523.914C464.055 537.273 463 546.414 460.891 551.336C458.312 557.336 454.516 561.953 449.5 565.188C444.484 568.375 438.109 569.969 430.375 569.969C421.984 569.969 415.188 568.094 409.984 564.344C404.828 560.594 401.195 555.367 399.086 548.664C397.586 544.023 396.836 535.586 396.836 523.352V491.5ZM478.891 491.5H495.344V501.133C497.125 497.336 499.492 494.453 502.445 492.484C505.398 490.516 508.633 489.531 512.148 489.531C514.633 489.531 517.234 490.188 519.953 491.5L513.977 508.023C511.727 506.898 509.875 506.336 508.422 506.336C505.469 506.336 502.961 508.164 500.898 511.82C498.883 515.477 497.875 522.648 497.875 533.336L497.945 537.062V568H478.891V491.5ZM604.398 506.969L588.438 515.758C585.438 512.617 582.461 510.438 579.508 509.219C576.602 508 573.18 507.391 569.242 507.391C562.07 507.391 556.258 509.547 551.805 513.859C547.398 518.125 545.195 523.609 545.195 530.312C545.195 536.828 547.328 542.148 551.594 546.273C555.859 550.398 561.461 552.461 568.398 552.461C576.977 552.461 583.656 549.531 588.438 543.672L603.555 554.008C595.352 564.648 583.773 569.969 568.82 569.969C555.367 569.969 544.82 565.984 537.18 558.016C529.586 550.047 525.789 540.719 525.789 530.031C525.789 522.625 527.641 515.805 531.344 509.57C535.047 503.336 540.203 498.438 546.812 494.875C553.469 491.312 560.898 489.531 569.102 489.531C576.695 489.531 583.516 491.055 589.562 494.102C595.609 497.102 600.555 501.391 604.398 506.969ZM698.406 535.305H636.742C637.633 540.742 640 545.078 643.844 548.312C647.734 551.5 652.68 553.094 658.68 553.094C665.852 553.094 672.016 550.586 677.172 545.57L693.344 553.164C689.312 558.883 684.484 563.125 678.859 565.891C673.234 568.609 666.555 569.969 658.82 569.969C646.82 569.969 637.047 566.195 629.5 558.648C621.953 551.055 618.18 541.562 618.18 530.172C618.18 518.5 621.93 508.82 629.43 501.133C636.977 493.398 646.422 489.531 657.766 489.531C669.812 489.531 679.609 493.398 687.156 501.133C694.703 508.82 698.477 518.992 698.477 531.648L698.406 535.305ZM679.141 520.188C677.875 515.922 675.367 512.453 671.617 509.781C667.914 507.109 663.602 505.773 658.68 505.773C653.336 505.773 648.648 507.273 644.617 510.273C642.086 512.148 639.742 515.453 637.586 520.188H679.141Z" fill="black"/>
</svg>
