<svg width="52" height="52" viewBox="0 0 52 52" fill="none" xmlns="http://www.w3.org/2000/svg">
<rect width="8" height="2" fill="black" transform="translate(2 25)"/>
<rect width="9" height="2" fill="black" transform="translate(22 25)"/>
<rect width="8" height="2" fill="black" transform="translate(43 25)"/>
<rect width="18" height="2" fill="black" transform="translate(17 2) rotate(90)"/>
<rect width="18" height="2" fill="black" transform="translate(38 32) rotate(90)"/>
<rect width="18" height="2" fill="black" transform="translate(38 32) rotate(90)"/>
<mask id="path-1-inside-1" fill="white">
<path fill-rule="evenodd" clip-rule="evenodd" d="M16 33C19.866 33 23 29.866 23 26C23 22.134 19.866 19 16 19C12.134 19 9 22.134 9 26C9 29.866 12.134 33 16 33ZM16 31C18.7614 31 21 28.7614 21 26C21 23.2386 18.7614 21 16 21C13.2386 21 11 23.2386 11 26C11 28.7614 13.2386 31 16 31Z"/>
</mask>
<path fill-rule="evenodd" clip-rule="evenodd" d="M16 33C19.866 33 23 29.866 23 26C23 22.134 19.866 19 16 19C12.134 19 9 22.134 9 26C9 29.866 12.134 33 16 33ZM16 31C18.7614 31 21 28.7614 21 26C21 23.2386 18.7614 21 16 21C13.2386 21 11 23.2386 11 26C11 28.7614 13.2386 31 16 31Z" fill="#C4C4C4"/>
<path d="M21 26C21 28.7614 18.7614 31 16 31V35C20.9705 35 25 30.9706 25 26H21ZM16 21C18.7614 21 21 23.2386 21 26H25C25 21.0294 20.9705 17 16 17V21ZM11 26C11 23.2386 13.2386 21 16 21V17C11.0295 17 7 21.0294 7 26H11ZM16 31C13.2386 31 11 28.7614 11 26H7C7 30.9706 11.0295 35 16 35V31ZM19 26C19 27.6568 17.6568 29 16 29V33C19.866 33 23 29.866 23 26H19ZM16 23C17.6568 23 19 24.3432 19 26H23C23 22.134 19.866 19 16 19V23ZM13 26C13 24.3432 14.3432 23 16 23V19C12.134 19 9 22.134 9 26H13ZM16 29C14.3432 29 13 27.6568 13 26H9C9 29.866 12.134 33 16 33V29Z" fill="black" mask="url(#path-1-inside-1)"/>
<mask id="path-3-inside-2" fill="white">
<path fill-rule="evenodd" clip-rule="evenodd" d="M37 33C40.866 33 44 29.866 44 26C44 22.134 40.866 19 37 19C33.134 19 30 22.134 30 26C30 29.866 33.134 33 37 33ZM37 31C39.7614 31 42 28.7614 42 26C42 23.2386 39.7614 21 37 21C34.2386 21 32 23.2386 32 26C32 28.7614 34.2386 31 37 31Z"/>
</mask>
<path fill-rule="evenodd" clip-rule="evenodd" d="M37 33C40.866 33 44 29.866 44 26C44 22.134 40.866 19 37 19C33.134 19 30 22.134 30 26C30 29.866 33.134 33 37 33ZM37 31C39.7614 31 42 28.7614 42 26C42 23.2386 39.7614 21 37 21C34.2386 21 32 23.2386 32 26C32 28.7614 34.2386 31 37 31Z" fill="#C4C4C4"/>
<path d="M42 26C42 28.7614 39.7614 31 37 31V35C41.9705 35 46 30.9706 46 26H42ZM37 21C39.7614 21 42 23.2386 42 26H46C46 21.0294 41.9705 17 37 17V21ZM32 26C32 23.2386 34.2386 21 37 21V17C32.0295 17 28 21.0294 28 26H32ZM37 31C34.2386 31 32 28.7614 32 26H28C28 30.9706 32.0295 35 37 35V31ZM40 26C40 27.6568 38.6568 29 37 29V33C40.866 33 44 29.866 44 26H40ZM37 23C38.6568 23 40 24.3432 40 26H44C44 22.134 40.866 19 37 19V23ZM34 26C34 24.3432 35.3432 23 37 23V19C33.134 19 30 22.134 30 26H34ZM37 29C35.3432 29 34 27.6568 34 26H30C30 29.866 33.134 33 37 33V29Z" fill="black" mask="url(#path-3-inside-2)"/>
</svg>
