<svg width="52" height="52" viewBox="0 0 52 52" fill="none" xmlns="http://www.w3.org/2000/svg">
<mask id="path-1-inside-1" fill="white">
<path d="M50 26.9744L24 9L26.4965 40.6052L34.7227 35.8344L42.8646 50L49.9156 45.9107L41.7738 31.7452L50 26.9744Z"/>
</mask>
<path d="M24 9L25.1373 7.35486L21.6747 4.9611L22.0062 9.15749L24 9ZM50 26.9744L51.0034 28.7045L53.7312 27.1224L51.1373 25.3292L50 26.9744ZM26.4965 40.6052L24.5027 40.7627L24.7528 43.9285L27.4999 42.3353L26.4965 40.6052ZM34.7227 35.8344L36.4567 34.8378L35.4562 33.097L33.7193 34.1043L34.7227 35.8344ZM42.8646 50L41.1306 50.9966L42.1311 52.7374L43.8679 51.7301L42.8646 50ZM49.9156 45.9107L50.919 47.6408L52.6424 46.6414L51.6496 44.9141L49.9156 45.9107ZM41.7738 31.7452L40.7704 30.0151L39.047 31.0145L40.0398 32.7418L41.7738 31.7452ZM22.8627 10.6451L48.8627 28.6195L51.1373 25.3292L25.1373 7.35486L22.8627 10.6451ZM28.4903 40.4477L25.9938 8.84251L22.0062 9.15749L24.5027 40.7627L28.4903 40.4477ZM33.7193 34.1043L25.4931 38.8751L27.4999 42.3353L35.7261 37.5645L33.7193 34.1043ZM44.5986 49.0034L36.4567 34.8378L32.9887 36.831L41.1306 50.9966L44.5986 49.0034ZM48.9123 44.1806L41.8612 48.2699L43.8679 51.7301L50.919 47.6408L48.9123 44.1806ZM40.0398 32.7418L48.1816 46.9074L51.6496 44.9141L43.5078 30.7485L40.0398 32.7418ZM48.9966 25.2443L40.7704 30.0151L42.7771 33.4753L51.0034 28.7045L48.9966 25.2443Z" fill="black" mask="url(#path-1-inside-1)"/>
<path fill-rule="evenodd" clip-rule="evenodd" d="M6 4H46C47.1046 4 48 4.89542 48 6V18C48 19.1046 47.1046 20 46 20H43.7136L46.5537 21.962C48.5007 21.6924 50 20.0212 50 18V6C50 3.79086 48.2091 2 46 2H6C3.79083 2 2 3.79086 2 6V18C2 20.2091 3.79083 22 6 22H23.3438L23.1857 20H6C4.89545 20 4 19.1046 4 18V6C4 4.89542 4.89545 4 6 4Z" fill="black"/>
</svg>
