<svg width="52" height="52" viewBox="0 0 52 52" fill="none" xmlns="http://www.w3.org/2000/svg">
<mask id="path-1-inside-1" fill="white">
<path fill-rule="evenodd" clip-rule="evenodd" d="M21.9749 2.33606L24.6932 7.04425C25.125 7.01492 25.5607 7 26 7C26.4393 7 26.875 7.01492 27.3068 7.04425L30.0251 2.33606C31.5167 2.58795 32.9616 2.97742 34.3462 3.49103V8.92651C35.1332 9.31192 35.8896 9.75015 36.6108 10.2366L41.3148 7.52066C42.4651 8.47507 43.5249 9.53482 44.4793 10.6852L41.7634 15.3892C42.2499 16.1104 42.688 16.8669 43.0735 17.6538L48.509 17.6539C49.0226 19.0385 49.412 20.4833 49.6639 21.9749L44.9557 24.6932C44.9851 25.125 45 25.5608 45 26C45 26.4392 44.9851 26.875 44.9557 27.3068L49.6639 30.0251C49.412 31.5167 49.0226 32.9616 48.509 34.3462H43.0735C42.688 35.1331 42.2499 35.8896 41.7634 36.6108L44.4793 41.3148C43.5249 42.4652 42.4651 43.5249 41.3148 44.4793L36.6107 41.7634C35.8895 42.2498 35.1331 42.6881 34.3461 43.0735V48.509C32.9615 49.0226 31.5167 49.412 30.0251 49.6639L27.3068 44.9557C26.875 44.9851 26.4393 45 26 45C25.5607 45 25.125 44.9851 24.6932 44.9557L21.9749 49.6639C20.4833 49.412 19.0385 49.0226 17.6539 48.509V43.0735C16.8669 42.6881 16.1105 42.2498 15.3893 41.7634L10.6852 44.4793C9.53485 43.525 8.4751 42.4652 7.52069 41.3149L10.2366 36.6108C9.75018 35.8896 9.31195 35.1331 8.92651 34.3462H3.49103C2.97742 32.9616 2.58795 31.5167 2.33606 30.0251L7.04425 27.3068C7.01489 26.875 7 26.4392 7 26C7 25.5608 7.01489 25.125 7.04425 24.6932L2.33606 21.9749C2.58795 20.4833 2.97742 19.0385 3.49103 17.6539L8.92651 17.6538C9.31195 16.8669 9.75018 16.1104 10.2366 15.3892L7.52069 10.6851C8.4751 9.53479 9.53485 8.47507 10.6851 7.52069L15.3892 10.2366C16.1104 9.75018 16.8668 9.31195 17.6538 8.92651V3.49103C19.0384 2.97742 20.4833 2.58795 21.9749 2.33606ZM26 34C30.4183 34 34 30.4183 34 26C34 21.5817 30.4183 18 26 18C21.5817 18 18 21.5817 18 26C18 30.4183 21.5817 34 26 34Z"/>
</mask>
<path d="M24.6932 7.04425L22.9611 8.04425L23.5846 9.12415L24.8287 9.03965L24.6932 7.04425ZM21.9749 2.33606L23.707 1.33606L23.0121 0.132587L21.6419 0.363981L21.9749 2.33606ZM27.3068 7.04425L27.1713 9.03965L28.4154 9.12415L29.0389 8.04425L27.3068 7.04425ZM30.0251 2.33606L30.3581 0.363981L28.9879 0.132587L28.293 1.33606L30.0251 2.33606ZM34.3462 3.49103H36.3462V2.09976L35.0418 1.61588L34.3462 3.49103ZM34.3462 8.92651H32.3462V10.174L33.4666 10.7227L34.3462 8.92651ZM36.6108 10.2366L35.4924 11.8947L36.5285 12.5935L37.6108 11.9686L36.6108 10.2366ZM41.3148 7.52066L42.5919 5.98146L41.5205 5.09253L40.3148 5.78861L41.3148 7.52066ZM44.4793 10.6852L46.2114 11.6851L46.9074 10.4795L46.0185 9.4081L44.4793 10.6852ZM41.7634 15.3892L40.0314 14.3892L39.4065 15.4715L40.1053 16.5076L41.7634 15.3892ZM43.0735 17.6538L41.2773 18.5335L41.826 19.6538L43.0735 19.6538L43.0735 17.6538ZM48.509 17.6539L50.3841 16.9583L49.9002 15.6539L48.509 15.6539L48.509 17.6539ZM49.6639 21.9749L50.6639 23.707L51.8674 23.0122L51.636 21.6419L49.6639 21.9749ZM44.9557 24.6932L43.9557 22.9612L42.8758 23.5847L42.9604 24.8289L44.9557 24.6932ZM44.9557 27.3068L42.9604 27.1712L42.8758 28.4153L43.9557 29.0389L44.9557 27.3068ZM49.6639 30.0251L51.636 30.3581L51.8674 28.9879L50.6639 28.2931L49.6639 30.0251ZM48.509 34.3462V36.3462H49.9002L50.3841 35.0417L48.509 34.3462ZM43.0735 34.3462V32.3462H41.826L41.2773 33.4665L43.0735 34.3462ZM41.7634 36.6108L40.1053 35.4924L39.4065 36.5285L40.0314 37.6108L41.7634 36.6108ZM44.4793 41.3148L46.0185 42.5919L46.9074 41.5205L46.2114 40.3149L44.4793 41.3148ZM41.3148 44.4793L40.3148 46.2114L41.5205 46.9075L42.5919 46.0185L41.3148 44.4793ZM36.6107 41.7634L37.6107 40.0314L36.5284 39.4065L35.4924 40.1053L36.6107 41.7634ZM34.3461 43.0735L33.4664 41.2774L32.3461 41.8261V43.0735H34.3461ZM34.3461 48.509L35.0417 50.3842L36.3461 49.9003V48.509H34.3461ZM30.0251 49.6639L28.293 50.6639L28.9879 51.8674L30.3581 51.636L30.0251 49.6639ZM27.3068 44.9557L29.0389 43.9558L28.4154 42.8759L27.1713 42.9603L27.3068 44.9557ZM24.6932 44.9557L24.8287 42.9603L23.5846 42.8759L22.9611 43.9558L24.6932 44.9557ZM21.9749 49.6639L21.6419 51.636L23.0121 51.8674L23.707 50.6639L21.9749 49.6639ZM17.6539 48.509H15.6539V49.9003L16.9583 50.3842L17.6539 48.509ZM17.6539 43.0735H19.6539V41.8261L18.5336 41.2774L17.6539 43.0735ZM15.3893 41.7634L16.5076 40.1053L15.4716 39.4065L14.3893 40.0314L15.3893 41.7634ZM10.6852 44.4793L9.40816 46.0186L10.4796 46.9075L11.6852 46.2114L10.6852 44.4793ZM7.52069 41.3149L5.78864 40.3149L5.09255 41.5206L5.9815 42.592L7.52069 41.3149ZM10.2366 36.6108L11.9687 37.6108L12.5935 36.5285L11.8947 35.4925L10.2366 36.6108ZM8.92651 34.3462L10.7227 33.4665L10.174 32.3462H8.92651V34.3462ZM3.49103 34.3462L1.61588 35.0417L2.09976 36.3462H3.49103V34.3462ZM2.33606 30.0251L1.33605 28.293L0.132588 28.9879L0.363981 30.3581L2.33606 30.0251ZM7.04425 27.3068L8.04426 29.0388L9.12424 28.4153L9.03964 27.1711L7.04425 27.3068ZM7.04425 24.6932L9.03964 24.8289L9.12424 23.5847L8.04426 22.9612L7.04425 24.6932ZM2.33606 21.9749L0.363982 21.6419L0.132584 23.0121L1.33605 23.707L2.33606 21.9749ZM3.49103 17.6539L3.49102 15.6539L2.09975 15.6539L1.61588 16.9583L3.49103 17.6539ZM8.92651 17.6538L8.92652 19.6538L10.174 19.6538L10.7227 18.5335L8.92651 17.6538ZM10.2366 15.3892L11.8948 16.5075L12.5935 15.4714L11.9687 14.3892L10.2366 15.3892ZM7.52069 10.6851L5.9815 9.40802L5.09255 10.4794L5.78864 11.6851L7.52069 10.6851ZM10.6851 7.52069L11.6851 5.78864L10.4795 5.09255L9.40806 5.9815L10.6851 7.52069ZM15.3892 10.2366L14.3892 11.9687L15.4715 12.5935L16.5076 11.8947L15.3892 10.2366ZM17.6538 8.92651L18.5335 10.7227L19.6538 10.174V8.92651H17.6538ZM17.6538 3.49103L16.9582 1.61588L15.6538 2.09976V3.49103H17.6538ZM26.4252 6.04425L23.707 1.33606L20.2429 3.33606L22.9611 8.04425L26.4252 6.04425ZM26 5C25.5154 5 25.0345 5.01646 24.5577 5.04885L24.8287 9.03965C25.2155 9.01338 25.606 9 26 9V5ZM27.4423 5.04885C26.9655 5.01646 26.4846 5 26 5V9C26.394 9 26.7845 9.01338 27.1713 9.03965L27.4423 5.04885ZM28.293 1.33606L25.5748 6.04425L29.0389 8.04425L31.7571 3.33606L28.293 1.33606ZM35.0418 1.61588C33.5408 1.05909 31.9746 0.636952 30.3581 0.363981L29.6921 4.30814C31.0589 4.53895 32.3824 4.89574 33.6506 5.36617L35.0418 1.61588ZM36.3462 8.92651V3.49103H32.3462V8.92651H36.3462ZM37.7291 8.57847C36.9321 8.04093 36.096 7.55649 35.2258 7.13034L33.4666 10.7227C34.1703 11.0673 34.847 11.4594 35.4924 11.8947L37.7291 8.57847ZM40.3148 5.78861L35.6108 8.50453L37.6108 11.9686L42.3148 9.25271L40.3148 5.78861ZM46.0185 9.4081C44.985 8.16246 43.8375 7.01494 42.5919 5.98146L40.0378 9.05986C41.0928 9.93519 42.0648 10.9072 42.9401 11.9622L46.0185 9.4081ZM43.4955 16.3892L46.2114 11.6851L42.7473 9.68515L40.0314 14.3892L43.4955 16.3892ZM44.8696 16.7742C44.4435 15.9041 43.9591 15.0679 43.4215 14.2709L40.1053 16.5076C40.5406 17.1529 40.9326 17.8296 41.2773 18.5335L44.8696 16.7742ZM48.509 15.6539L43.0735 15.6538L43.0735 19.6538L48.509 19.6539L48.509 15.6539ZM51.636 21.6419C51.363 20.0255 50.9409 18.4593 50.3841 16.9583L46.6338 18.3495C47.1043 19.6176 47.461 20.9412 47.6919 22.308L51.636 21.6419ZM45.9558 26.4253L50.6639 23.707L48.6639 20.2429L43.9557 22.9612L45.9558 26.4253ZM47 26C47 25.5155 46.9836 25.0346 46.9511 24.5576L42.9604 24.8289C42.9866 25.2155 43 25.606 43 26H47ZM46.9511 27.4425C46.9836 26.9655 47 26.4845 47 26H43C43 26.394 42.9866 26.7845 42.9604 27.1712L46.9511 27.4425ZM50.6639 28.2931L45.9558 25.5748L43.9557 29.0389L48.6639 31.7572L50.6639 28.2931ZM50.3841 35.0417C50.9409 33.5408 51.363 31.9746 51.636 30.3581L47.6919 29.6921C47.4611 31.0589 47.1043 32.3824 46.6338 33.6506L50.3841 35.0417ZM43.0735 36.3462H48.509V32.3462H43.0735V36.3462ZM43.4215 37.7291C43.9591 36.9321 44.4435 36.0959 44.8696 35.2258L41.2773 33.4665C40.9326 34.1704 40.5406 34.8471 40.1053 35.4924L43.4215 37.7291ZM46.2114 40.3149L43.4955 35.6108L40.0314 37.6108L42.7473 42.3148L46.2114 40.3149ZM42.5919 46.0185C43.8375 44.9851 44.985 43.8375 46.0185 42.5919L42.9401 40.0378C42.0648 41.0928 41.0928 42.0648 40.0378 42.9401L42.5919 46.0185ZM35.6107 43.4955L40.3148 46.2114L42.3148 42.7473L37.6107 40.0314L35.6107 43.4955ZM35.2258 44.8697C36.096 44.4435 36.9321 43.9591 37.7291 43.4215L35.4924 40.1053C34.847 40.5406 34.1703 40.9327 33.4664 41.2774L35.2258 44.8697ZM36.3461 48.509V43.0735H32.3461V48.509H36.3461ZM30.3581 51.636C31.9746 51.363 33.5407 50.9409 35.0417 50.3842L33.6506 46.6338C32.3824 47.1043 31.0589 47.4611 29.6921 47.6919L30.3581 51.636ZM25.5748 45.9557L28.293 50.6639L31.7571 48.6639L29.0389 43.9558L25.5748 45.9557ZM26 47C26.4846 47 26.9655 46.9835 27.4423 46.9512L27.1713 42.9603C26.7845 42.9866 26.394 43 26 43V47ZM24.5577 46.9512C25.0345 46.9835 25.5154 47 26 47V43C25.606 43 25.2155 42.9866 24.8287 42.9603L24.5577 46.9512ZM23.707 50.6639L26.4252 45.9557L22.9611 43.9558L20.2429 48.6639L23.707 50.6639ZM16.9583 50.3842C18.4593 50.9409 20.0254 51.363 21.6419 51.636L22.3079 47.6919C20.9411 47.4611 19.6176 47.1043 18.3494 46.6338L16.9583 50.3842ZM15.6539 43.0735V48.509H19.6539V43.0735H15.6539ZM14.2709 43.4215C15.0679 43.9591 15.904 44.4435 16.7742 44.8697L18.5336 41.2774C17.8297 40.9327 17.153 40.5406 16.5076 40.1053L14.2709 43.4215ZM11.6852 46.2114L16.3893 43.4955L14.3893 40.0314L9.68518 42.7473L11.6852 46.2114ZM5.9815 42.592C7.01498 43.8376 8.1625 44.9851 9.40816 46.0186L11.9622 42.9401C10.9072 42.0648 9.93521 41.0928 9.05988 40.0378L5.9815 42.592ZM8.50459 35.6108L5.78864 40.3149L9.25274 42.3149L11.9687 37.6108L8.50459 35.6108ZM7.13036 35.2258C7.55653 36.096 8.04095 36.9321 8.57854 37.7292L11.8947 35.4925C11.4594 34.847 11.0674 34.1703 10.7227 33.4665L7.13036 35.2258ZM3.49103 36.3462H8.92651V32.3462H3.49103V36.3462ZM0.363981 30.3581C0.636953 31.9746 1.0591 33.5408 1.61588 35.0417L5.36617 33.6506C4.89574 32.3824 4.53895 31.0589 4.30814 29.6921L0.363981 30.3581ZM6.04425 25.5747L1.33605 28.293L3.33606 31.7571L8.04426 29.0388L6.04425 25.5747ZM5 26C5 26.4845 5.01643 26.9655 5.04886 27.4425L9.03964 27.1711C9.01336 26.7845 9 26.394 9 26H5ZM5.04886 24.5575C5.01643 25.0345 5 25.5155 5 26H9C9 25.606 9.01336 25.2155 9.03964 24.8289L5.04886 24.5575ZM1.33605 23.707L6.04425 26.4253L8.04426 22.9612L3.33606 20.2429L1.33605 23.707ZM1.61588 16.9583C1.0591 18.4593 0.636954 20.0254 0.363982 21.6419L4.30814 22.3079C4.53895 20.9412 4.89574 19.6176 5.36617 18.3495L1.61588 16.9583ZM8.9265 15.6538L3.49102 15.6539L3.49104 19.6539L8.92652 19.6538L8.9265 15.6538ZM8.57851 14.2709C8.04096 15.0679 7.55654 15.904 7.13036 16.7742L10.7227 18.5335C11.0674 17.8297 11.4594 17.153 11.8948 16.5075L8.57851 14.2709ZM5.78864 11.6851L8.50459 16.3892L11.9687 14.3892L9.25274 9.68508L5.78864 11.6851ZM9.40806 5.9815C8.1625 7.01494 7.01499 8.16241 5.9815 9.40802L9.05988 11.9622C9.9352 10.9072 10.9072 9.9352 11.9622 9.05988L9.40806 5.9815ZM16.3892 8.50455L11.6851 5.78864L9.68512 9.25274L14.3892 11.9687L16.3892 8.50455ZM16.7741 7.13036C15.904 7.55653 15.0679 8.04096 14.2709 8.5785L16.5076 11.8947C17.153 11.4594 17.8297 11.0674 18.5335 10.7227L16.7741 7.13036ZM15.6538 3.49103V8.92651H19.6538V3.49103H15.6538ZM21.6419 0.363981C20.0254 0.636952 18.4592 1.05909 16.9582 1.61588L18.3494 5.36617C19.6176 4.89574 20.9411 4.53895 22.3079 4.30814L21.6419 0.363981ZM32 26C32 29.3137 29.3137 32 26 32V36C31.5228 36 36 31.5228 36 26H32ZM26 20C29.3137 20 32 22.6863 32 26H36C36 20.4772 31.5228 16 26 16V20ZM20 26C20 22.6863 22.6863 20 26 20V16C20.4772 16 16 20.4772 16 26H20ZM26 32C22.6863 32 20 29.3137 20 26H16C16 31.5228 20.4772 36 26 36V32Z" fill="black" mask="url(#path-1-inside-1)"/>
</svg>
