<svg width="52" height="52" viewBox="0 0 52 52" fill="none" xmlns="http://www.w3.org/2000/svg">
<path d="M26 7L26.7071 6.29289L26 5.58579L25.2929 6.29289L26 7ZM45.0919 26.0919L45.799 26.799L46.5061 26.0919L45.799 25.3848L45.0919 26.0919ZM26 45.1838L25.2929 45.8909L26 46.598L26.7071 45.8909L26 45.1838ZM6.90814 26.0919L6.20104 25.3848L5.49393 26.0919L6.20104 26.799L6.90814 26.0919ZM25.2929 7.70711L44.3848 26.799L45.799 25.3848L26.7071 6.29289L25.2929 7.70711ZM44.3848 25.3848L25.2929 44.4767L26.7071 45.8909L45.799 26.799L44.3848 25.3848ZM26.7071 44.4767L7.61525 25.3848L6.20104 26.799L25.2929 45.8909L26.7071 44.4767ZM7.61525 26.799L26.7071 7.70711L25.2929 6.29289L6.20104 25.3848L7.61525 26.799ZM2 27H8V25H2V27ZM36 17L50 3.00001L48.5858 1.5858L34.5858 15.5858L36 17ZM49.4142 48.5858L35.4142 34.5858L34 36L48 50L49.4142 48.5858Z" fill="black"/>
<path d="M22.6992 22.1211H21C21.0156 20.543 21.4844 19.2969 22.4062 18.3828C23.3359 17.4609 24.5781 17 26.1328 17C27.6641 17 28.8672 17.3867 29.7422 18.1602C30.6172 18.9336 31.0547 19.8945 31.0547 21.043C31.0547 21.5898 30.9336 22.0977 30.6914 22.5664C30.457 23.0273 30.0977 23.4453 29.6133 23.8203C29.1289 24.1875 28.2812 24.6094 27.0703 25.0859C25.5469 25.6953 24.625 26.1484 24.3047 26.4453C23.9766 26.75 23.8125 27.1172 23.8125 27.5469C23.8125 28 24.0312 28.4062 24.4688 28.7656C24.9141 29.125 25.4883 29.3047 26.1914 29.3047C26.9648 29.3047 27.5586 29.1094 27.9727 28.7188C28.3867 28.3203 28.6406 27.6875 28.7344 26.8203H30.4453C30.3906 28.125 29.9844 29.1406 29.2266 29.8672C28.4766 30.5859 27.4648 30.9453 26.1914 30.9453C24.9258 30.9453 23.918 30.6172 23.168 29.9609C22.418 29.3047 22.043 28.4961 22.043 27.5352C22.043 27.0664 22.1445 26.625 22.3477 26.2109C22.5586 25.7891 22.8516 25.4375 23.2266 25.1562C23.6094 24.875 24.3242 24.5195 25.3711 24.0898C27.0586 23.4023 28.1406 22.8867 28.6172 22.543C29.0859 22.1992 29.3203 21.707 29.3203 21.0664C29.3203 20.3867 29.0312 19.8125 28.4531 19.3438C27.8828 18.875 27.1172 18.6406 26.1562 18.6406C24.9844 18.6406 24.0742 19.0273 23.4258 19.8008C22.9727 20.3398 22.7305 21.1133 22.6992 22.1211ZM26.1211 32.0938C26.5195 32.0938 26.8594 32.2344 27.1406 32.5156C27.4219 32.7969 27.5625 33.1406 27.5625 33.5469C27.5625 33.9453 27.4219 34.2891 27.1406 34.5781C26.8594 34.8594 26.5195 35 26.1211 35C25.7227 35 25.3828 34.8594 25.1016 34.5781C24.8203 34.2891 24.6797 33.9453 24.6797 33.5469C24.6797 33.1406 24.8203 32.7969 25.1016 32.5156C25.3828 32.2344 25.7227 32.0938 26.1211 32.0938Z" fill="black"/>
</svg>
