<svg width="52" height="52" viewBox="0 0 52 52" fill="none" xmlns="http://www.w3.org/2000/svg">
<path d="M23.8272 7.54425L24.1389 8.0842L24.7609 8.04195C25.1703 8.01415 25.5834 8 26 8C26.4166 8 26.8297 8.01415 27.2391 8.04195L27.8611 8.0842L28.1728 7.54425L30.5381 3.44742C31.4971 3.63929 32.4345 3.89077 33.3462 4.19785V8.92651V9.55027L33.9064 9.8246C34.6518 10.1896 35.3683 10.6048 36.0516 11.0656L36.5696 11.415L37.1108 11.1026L41.2024 8.74025C41.9306 9.38214 42.6178 10.0694 43.2597 10.7975L40.8974 14.8892L40.585 15.4304L40.9344 15.9484C41.3952 16.6317 41.8103 17.3482 42.1754 18.0937L42.4498 18.6538L43.0735 18.6538L47.8021 18.6539C48.1092 19.5656 48.3607 20.5029 48.5526 21.4619L44.4557 23.8272L43.9158 24.139L43.9581 24.7611C43.9859 25.1703 44 25.5834 44 26C44 26.4166 43.9859 26.8298 43.9581 27.239L43.9158 27.8611L44.4557 28.1728L48.5526 30.5382C48.3607 31.4971 48.1092 32.4344 47.8021 33.3462H43.0735H42.4498L42.1754 33.9063C41.8103 34.6518 41.3952 35.3683 40.9344 36.0516L40.585 36.5696L40.8974 37.1108L43.2597 41.2025C42.6178 41.9306 41.9306 42.6179 41.2024 43.2598L37.1107 40.8974L36.5696 40.585L36.0515 40.9344C35.3682 41.3952 34.6517 41.8104 33.9063 42.1754L33.3461 42.4498V43.0735V47.8022C32.4344 48.1092 31.4971 48.3607 30.5381 48.5526L28.1728 44.4557L27.8611 43.9158L27.2391 43.958C26.8297 43.9858 26.4166 44 26 44C25.5834 44 25.1703 43.9858 24.7609 43.958L24.1389 43.9158L23.8272 44.4557L21.4619 48.5526C20.5029 48.3607 19.5656 48.1092 18.6539 47.8022V43.0735V42.4498L18.0937 42.1754C17.3483 41.8104 16.6318 41.3952 15.9485 40.9344L15.4304 40.585L14.8893 40.8974L10.7976 43.2598C10.0694 42.6179 9.38217 41.9307 8.74029 41.2025L11.1027 37.1108L11.4151 36.5697L11.0657 36.0516C10.6048 35.3683 10.1897 34.6517 9.82459 33.9063L9.55024 33.3462H8.92651H4.19785C3.89076 32.4344 3.63929 31.4971 3.44742 30.5381L7.54425 28.1728L8.08424 27.8611L8.04195 27.239C8.01413 26.8298 8 26.4166 8 26C8 25.5834 8.01413 25.1702 8.04195 24.761L8.08424 24.1389L7.54425 23.8272L3.44743 21.4619C3.63929 20.5029 3.89077 19.5656 4.19785 18.6539L8.92652 18.6538L9.55025 18.6538L9.82459 18.0937C10.1897 17.3483 10.6048 16.6317 11.0657 15.9484L11.4151 15.4303L11.1027 14.8892L8.74029 10.7975C9.38216 10.0694 10.0694 9.38214 10.7975 8.74028L14.8892 11.1026L15.4304 11.4151L15.9484 11.0657C16.6317 10.6048 17.3482 10.1897 18.0937 9.82459L18.6538 9.55024V8.92651V4.19785C19.5655 3.89077 20.5029 3.63929 21.4619 3.44742L23.8272 7.54425ZM26 35C30.9706 35 35 30.9706 35 26C35 21.0294 30.9706 17 26 17C21.0294 17 17 21.0294 17 26C17 30.9706 21.0294 35 26 35Z" stroke="black" stroke-width="2"/>
</svg>
