<svg width="52" height="52" viewBox="0 0 52 52" fill="none" xmlns="http://www.w3.org/2000/svg">
<path fill-rule="evenodd" clip-rule="evenodd" d="M50 9.78378V42.2162C50 46.5151 39.2548 50 26 50C12.7452 50 2 46.5151 2 42.2162V9.78378C2 5.48492 12.7452 2 26 2C39.2548 2 50 5.48492 50 9.78378ZM4 14.1143V42.2162C4 42.3915 4.10982 42.8973 5.10302 43.6589C6.06716 44.3982 7.58802 45.1501 9.64645 45.8177C13.7411 47.1457 19.5232 48 26 48C32.4768 48 38.2589 47.1457 42.3536 45.8177C44.412 45.1501 45.9328 44.3982 46.897 43.6589C47.8902 42.8973 48 42.3915 48 42.2162V14.1143C46.7403 14.9272 45.1315 15.6382 43.2791 16.239C38.8117 17.6879 32.7027 18.5676 26 18.5676C19.2973 18.5676 13.1883 17.6879 8.72093 16.239C6.86847 15.6382 5.25969 14.9272 4 14.1143ZM48 11.6034V9.78378C48 9.60847 47.8902 9.10268 46.897 8.3411C45.9328 7.60181 44.412 6.84986 42.3536 6.18226C38.2589 4.85426 32.4768 4 26 4C19.5232 4 13.7411 4.85426 9.64645 6.18226C7.58802 6.84986 6.06716 7.60181 5.10302 8.3411C4.10982 9.10268 4 9.60847 4 9.78378V11.6034C4.14598 11.7398 4.31033 11.8788 4.49453 12.02C5.58383 12.8553 7.22294 13.6506 9.33794 14.3365C13.5568 15.7048 19.4479 16.5676 26 16.5676C32.5521 16.5676 38.4432 15.7048 42.6621 14.3365C44.7771 13.6506 46.4162 12.8553 47.5055 12.02C47.6897 11.8788 47.854 11.7398 48 11.6034Z" fill="black"/>
</svg>
