<svg width="52" height="52" viewBox="0 0 52 52" fill="none" xmlns="http://www.w3.org/2000/svg">
<path fill-rule="evenodd" clip-rule="evenodd" d="M17 2H15V19.0709C11.9343 19.5094 9.5094 21.9343 9.07086 25H2V27H9.07086C9.55609 30.3923 12.4736 33 16 33C19.5264 33 22.4439 30.3923 22.9291 27H30.0709C30.5094 30.0657 32.9343 32.4906 36 32.9291V50H38V32.9291C41.0657 32.4906 43.4906 30.0657 43.9291 27H51V25H43.9291C43.4439 21.6077 40.5264 19 37 19C33.4736 19 30.5561 21.6077 30.0709 25H22.9291C22.4906 21.9343 20.0657 19.5094 17 19.0709V2ZM16 31C18.7614 31 21 28.7614 21 26C21 23.2386 18.7614 21 16 21C13.2386 21 11 23.2386 11 26C11 28.7614 13.2386 31 16 31ZM42 26C42 28.7614 39.7614 31 37 31C34.2386 31 32 28.7614 32 26C32 23.2386 34.2386 21 37 21C39.7614 21 42 23.2386 42 26Z" fill="black"/>
</svg>
